<?xml version="1.0" encoding="UTF-8"?>
<svg viewBox="0 0 499.36322 503.70413" xmlns="http://www.w3.org/2000/svg">
 <defs>
  <radialGradient id="b" cx="27.297" cy="48.446" r="6.8201" gradientTransform="matrix(-21.715 18.399 -19.969 -23.57 1975.4 1062.7)" gradientUnits="userSpaceOnUse">
   <stop stop-color="#ff0" offset="0"/>
   <stop stop-color="#cda400" offset="1"/>
  </radialGradient>
  <radialGradient id="a" cx="30.044" cy="34.601" r="6.8201" gradientTransform="matrix(-20.148 23.396 -22.969 -19.781 1794.5 404.2)" gradientUnits="userSpaceOnUse">
   <stop stop-color="#007aff" offset="0"/>
   <stop stop-color="#00005a" offset="1"/>
  </radialGradient>
  <radialGradient id="d" cx="63.169" cy="26.4" r="6.8201" gradientTransform="matrix(19.69 -19.919 19.849 19.621 -1376.5 1140.5)" gradientUnits="userSpaceOnUse">
   <stop stop-color="#ff6a00" offset="0"/>
   <stop stop-color="#940202" offset="1"/>
  </radialGradient>
  <radialGradient id="c" cx="56.444" cy="12.159" r="6.8201" gradientTransform="matrix(20.269 -19.747 19.578 20.096 -969.06 1271)" gradientUnits="userSpaceOnUse">
   <stop stop-color="#9dff0a" offset="0"/>
   <stop stop-color="#005900" offset="1"/>
  </radialGradient>
 </defs>
 <g transform="translate(-148.96 -113.75)">
  <path transform="translate(148.96 113.75)" d="m380.47 170.06c-5.889 0.11027-11.871 0.81784-17.781 1.9688-1.5918 0.30999-3.1586 0.65755-4.75 1.0312 5.8194 5.3598 11.223 11.17 16.188 17.406 11.915-1.3074 22.435 0.17889 31.281 5.0312 10.68 5.8585 19.986 16.979 26.375 38.062a10.001 10.001 0 1 0 19.125 -5.8125c-7.4338-24.531-19.946-41.026-35.906-49.781-9.9753-5.4719-20.86-7.792-32.031-7.9062-0.83788-0.00856-1.6587-0.01575-2.5 0zm-270.78 8.4375c-8.0131-0.0353-15.897 1.056-23.5 3.625-20.274 6.8506-36.83 24.691-45.75 54.125a10.001 10.001 0 1 0 19.125 5.8125c7.6664-25.298 19.183-36.289 33.031-40.969 9.0437-3.0559 19.841-3.1741 31.562-1 4.3814-6.1148 9.1856-11.873 14.312-17.25-9.6154-2.6536-19.307-4.302-28.781-4.3438zm299.97 84.281c-0.5426 0.00239-1.0812 0.01865-1.625 0.03125 1.4128 5.9338 3.0946 12.629 4.2812 20.062 5.1736 0.16678 10.004 0.97058 14.438 2.4688 13.849 4.6796 25.365 15.702 33.031 41a10.001 10.001 0 1 0 19.125 -5.8125c-8.9199-29.434-25.476-47.274-45.75-54.125-7.6026-2.569-15.487-3.6603-23.5-3.625zm-319.97 8.5c-8.0131-0.0353-15.897 1.056-23.5 3.625-20.274 6.8506-36.861 24.691-45.781 54.125a10.009 10.009 0 1 0 19.156 5.8125c7.6664-25.298 19.183-36.32 33.031-41 5.9896-2.0239 12.757-2.7663 20.031-2.4062 0.35279-6.7765 1.0667-13.457 2.1562-20-1.7001-0.10442-3.4039-0.14881-5.0938-0.15625zm319.75 89.812c-1.5262 6.5762-3.4234 13.008-5.6562 19.25 12.948 5.0573 23.71 16.162 31 40.219a10.001 10.001 0 1 0 19.125 -5.8125c-8.7272-28.799-24.791-46.489-44.469-53.656zm-309 5.3125c-3.8039 0.59083-7.5613 1.4723-11.25 2.7188-20.274 6.8506-36.83 24.691-45.75 54.125a10.001 10.001 0 1 0 19.125 5.8125c7.6664-25.298 19.183-36.289 33.031-40.969 3.406-1.1509 7.0822-1.8633 10.938-2.2188-2.3963-6.3022-4.4321-12.804-6.0938-19.469z"/>
  <path d="m373.96 266.84c-67.182 8.9742-119.31 71.948-119.31 148.42 0 6.2768 0.34946 12.457 1.0312 18.531 48.766-17.866 86.25-30.843 137.31-31.184-4.5814-42.43-11.764-89.873-19.03-135.76z" fill="url(#d)" fill-rule="evenodd" stroke="#630022" stroke-width="10"/>
  <path d="m413.05 561.75 21.531 21.188c63.445-11.443 112.17-71.423 113.69-144.19-51.321-13.037-96.912-16.888-133.14-16.15 11.694 111.31 2.4868 134.38-2.0813 139.15z" fill="url(#b)" fill-rule="evenodd" stroke="#d27c00" stroke-width="10"/>
  <path d="m547.95 418.34c0.74-13.975-3.0801-28.522-5.8693-40.548-15.24-64.411-63.008-113.44-132.52-114.14-5.7542 0.16647-11.607 0.1249-16.475 0.93002 7.2768 45.97 15.106 95.333 19.71 137.81 36.145-0.77484 83.476 4.5015 135.15 15.948z" fill="url(#c)" fill-rule="evenodd" stroke="#006300" stroke-width="10"/>
  <path d="m365.95 583.12c-57.375-12.154-101.23-64.162-107.65-128.73 48.86-17.902 85.621-30.952 136.74-31.266 11.849 112.04 2.428 134.71-2.109 139.28-9.2991 6.1793-18.103 13.74-26.976 20.718z" fill="url(#a)" fill-rule="evenodd" stroke="#000051" stroke-width="10"/>
  <path d="m409.55 273.49v0.0312c64.832 0.65664 108.44 45.444 122.88 106.38 4e-3 0.0192-4e-3 0.0433 0 0.0625 1.9358 8.3442 4.0595 17.344 5.0625 25.969-43.227-8.8574-83.095-13.544-115.75-13.688-4.3313-37.414-10.745-78.833-17.031-118.59 1.5994-0.0447 3.1336-0.1082 4.8438-0.15625z" fill="none" stroke="#92ec0d" stroke-width="10"/>
  <path d="m386.08 433.43c4.917 49.667 5.4741 80.804 4.1874 98.875-1.2664 17.788-4.6506 23.019-4.3124 22.875-7.9294 5.4189-15.207 11.34-22.219 16.969-48.342-12.301-85.938-55.841-94.281-111.12 41.756-15.216 74.572-25.983 116.62-27.594z" fill="none" stroke="#0371eb" stroke-width="10"/>
  <path d="m365.66 278.31c6.1047 38.86 12 78.197 16.188 114.44-42.609 1.8579-77.299 12.6-116.91 26.875-0.0461-1.555-0.25-3.056-0.25-4.625 0-68.116 43.859-123.95 100.97-136.69z" fill="none" stroke="#ed5a00" stroke-width="10"/>
  <path d="m387.69 187.19c-45.658 0-82.719 27.598-82.719 61.594 0 8.653 1.4488 17.802 6.75 24.344 0.3697 0.45623 0.7868 0.89147 1.1876 1.3438 17.542-11.85 37.58-19.81 59.125-22.688 11.12-2.1183 24.817-2.9582 36.75-3.2812h0.4062c21.98 0.22262 42.026 5.0791 59.781 13.5 1.1206-4.2262 1.4376-8.7813 1.4376-13.219 0-33.996-37.061-61.594-82.719-61.594z" stroke="#000" stroke-linejoin="round" stroke-width=".60061"/>
  <path d="m361.83 242.08s-37.691-135.57-128.95-83.489" fill="none" stroke="#000" stroke-linecap="round" stroke-width="15"/>
  <path d="m410.53 235.73s39.691-134.57 130.95-82.489" fill="none" stroke="#000" stroke-linecap="round" stroke-width="15"/>
  <path transform="matrix(.84596 0 0 1.1243 74.958 58.004)" d="m354.29 373.79c0 11.835-12.152 21.429-27.143 21.429s-27.143-9.5939-27.143-21.429 12.152-21.429 27.143-21.429 27.143 9.5939 27.143 21.429z" stroke="#0371eb" stroke-width="10.254"/>
  <path transform="matrix(.84596 0 0 1.1243 177.78 73.075)" d="m354.29 373.79c0 11.835-12.152 21.429-27.143 21.429s-27.143-9.5939-27.143-21.429 12.152-21.429 27.143-21.429 27.143 9.5939 27.143 21.429z" fill="#fff" stroke="#f3e812" stroke-width="10.254"/>
  <path transform="matrix(.84596 0 0 1.1243 39.874 -44.648)" d="m354.29 373.79c0 11.835-12.152 21.429-27.143 21.429s-27.143-9.5939-27.143-21.429 12.152-21.429 27.143-21.429 27.143 9.5939 27.143 21.429z" fill="#fff" stroke="#ed5a00" stroke-width="10.254"/>
  <path transform="matrix(.84596 0 0 1.1243 191.17 -79.103)" d="m354.29 373.79c0 11.835-12.152 21.429-27.143 21.429s-27.143-9.5939-27.143-21.429 12.152-21.429 27.143-21.429 27.143 9.5939 27.143 21.429z" stroke="#92ec0d" stroke-width="10.254"/>
  <path d="m426.2 432.7c4.757 48.93 5.4008 80.381 4.0312 100.06-0.91433 13.139-2.4669 21.239-4.75 27.094l12.281 12.062c53.677-12.159 95.545-62.616 100.09-125.41-42.346-10.074-80.096-13.661-111.66-13.812z" fill="none" opacity=".6" stroke="#f7ee1e" stroke-width="10"/>
 </g>
</svg>
