<?xml version="1.0" encoding="UTF-8"?>
<svg viewBox="0 0 128 128" xmlns="http://www.w3.org/2000/svg">
 <defs>
  <filter id="g" color-interpolation-filters="sRGB">
   <feGaussianBlur stdDeviation="0.14197"/>
  </filter>
  <radialGradient id="h" cx="10.347" cy="17.05" r="10" gradientTransform="matrix(7.6561 6.2718 -1.6669 2.0348 -10.886 -116.55)" gradientUnits="userSpaceOnUse">
   <stop stop-color="#eee" offset="0"/>
   <stop stop-color="#ddd" offset="1"/>
  </radialGradient>
  <linearGradient id="i" x2="0" y1="1.679" y2="13.96" gradientTransform="matrix(4.3086 0 0 4.3086 -4.668 -101.47)" gradientUnits="userSpaceOnUse">
   <stop stop-color="#090909" offset="0"/>
   <stop stop-color="#0a0a0a" stop-opacity=".431" offset="1"/>
  </linearGradient>
  <radialGradient id="j" cx="12.67" cy="3.598" r="7.422" gradientTransform="matrix(5.3596 9.9399 -11.376 6.1341 24.99 -225.63)" gradientUnits="userSpaceOnUse">
   <stop stop-color="#bbb" offset="0"/>
   <stop stop-color="#bbb" stop-opacity="0" offset="1"/>
  </radialGradient>
  <radialGradient id="k" cx="27.993" cy="27.699" r="14.25" gradientTransform="matrix(3.2304 -2.8511 4.9413 5.5986 -111.35 -57.784)" gradientUnits="userSpaceOnUse">
   <stop stop-color="#323232" offset="0"/>
   <stop stop-color="#3f3f3f" offset="1"/>
  </radialGradient>
  <radialGradient id="l" cx="65.66" cy="-126.49" r="62.27" gradientTransform="matrix(1.4415 .0042542 -.0029288 .99243 -31.029 -.38241)" gradientUnits="userSpaceOnUse">
   <stop stop-color="#eee" offset="0"/>
   <stop stop-color="#eee" stop-opacity="0" offset="1"/>
  </radialGradient>
 </defs>
 <g transform="translate(0,96)">
  <g transform="matrix(4.3086 0 0 4.3086 -4.668 -100.18)" filter="url(#g)">
   <path d="m2.6875 1.6875c-0.554 0-1 0.446-1 1v26.281c0 0.554 0.446 1 1 1h26.5c0.554 0 1-0.446 1-1v-25.719l-1.5625-1.5625h-25.938zm0.09375 25.75h1.2812c0.0554 0 0.125 0.03835 0.125 0.09375v1.2188c-1e-5 0.05541-0.0696 0.09375-0.125 0.09375h-1.2812c-0.05541 1e-5 -0.125-0.03835-0.125-0.09375v-1.2188c0-0.05541 0.0696-0.09375 0.125-0.09375zm25 0.15625h1.3125c0.0554 0 0.09375 0.03835 0.09375 0.09375v1.25c-1e-5 0.05541-0.03835 0.09375-0.09375 0.09375h-1.3125c-0.05541 1e-5 -0.09375-0.03835-0.09375-0.09375v-1.25c0-0.05541 0.03835-0.09375 0.09375-0.09375z" stroke-width="1.75"/>
   <path d="m10.188 1.8042c-0.3324 0-0.625 0.26134-0.625 0.59375v10.531c0 0.3324 0.29259 0.625 0.625 0.625h13.594c0.3324 0 0.625-0.29259 0.625-0.625v-10.531c0-0.3324-0.29261-0.59375-0.625-0.59375h-13.594zm9.7814 0.375h2.125c0.3324 0 0.59375 0.26135 0.59375 0.59375v9.6296c0 0.33241-0.26135 0.59375-0.59375 0.59375h-2.125c-0.33241 0-0.59375-0.26135-0.59375-0.59375v-9.6296c0-0.33241 0.26135-0.59375 0.59375-0.59375z" stroke-width=".125"/>
   <path d="m5.2188 1.6792v11.656c0 0.3324 0.23455 0.625 0.53289 0.625h18.483c0.29833 0 0.53289-0.2926 0.53289-0.625v-11.656h-0.30852v11.344c9e-6 0.33241-0.23456 0.59375-0.53289 0.59375h-17.782c-0.29834 0-0.56094-0.26135-0.56094-0.59375v-11.344h-0.36461z" opacity=".486" stroke-width="1.75"/>
   <path d="m7.25 17.531c-0.554 0-1 0.446-1 1v11.438h20v-11.438c0-0.554-0.446-1-1-1h-18z" stroke-width="1.75"/>
   <rect x="8.205" y="19.684" width="16.07" height=".209" stroke-width="1.75"/>
   <rect x="8.205" y="21.684" width="16.07" height=".209" stroke-width="1.75"/>
   <rect x="8.205" y="23.684" width="16.07" height=".209" stroke-width="1.75"/>
   <rect x="8.205" y="25.684" width="16.07" height=".209" stroke-width="1.75"/>
   <rect x="8.205" y="27.684" width="16.07" height=".209" stroke-width="1.75"/>
   <rect x="8.205" y="27.684" width="16.07" height=".209" stroke-width="1.75"/>
  </g>
  <path d="m6.9113-94.201c-2.387 0-4.3086 1.9216-4.3086 4.3086v113.23c0 2.387 1.9216 4.3086 4.3086 4.3086h114.18c2.387 0 4.3086-1.9216 4.3086-4.3086v-110.81l-6.7322-6.7322h-111.75zm0.40393 110.95h5.5204c0.2387 0 0.53857 0.16523 0.53857 0.40393v5.2511c-4.3e-5 0.23874-0.29988 0.40393-0.53857 0.40393h-5.5204c-0.23874 4.3e-5 -0.53857-0.16523-0.53857-0.40393v-5.2511c0-0.23874 0.29988-0.40393 0.53857-0.40393zm107.71 0.67322h5.655c0.23869 0 0.40393 0.16523 0.40393 0.40393v5.3857c-4e-5 0.23874-0.16524 0.40393-0.40393 0.40393h-5.655c-0.23874 4.3e-5 -0.40393-0.16523-0.40393-0.40393v-5.3857c0-0.23874 0.16523-0.40393 0.40393-0.40393z" fill="url(#k)" stroke-width="1.75"/>
  <path d="m39.226-93.698c-1.4322 0-2.6929 1.126-2.6929 2.5582v45.375c0 1.4322 1.2606 2.6929 2.6929 2.6929h58.57c1.4322 0 2.6929-1.2606 2.6929-2.6929v-45.375c0-1.4322-1.2607-2.5582-2.6929-2.5582h-58.57zm42.144 1.6157h9.1557c1.4322 0 2.5582 1.126 2.5582 2.5582v41.49c0 1.4322-1.126 2.5582-2.5582 2.5582h-9.1557c-1.4322 0-2.5582-1.126-2.5582-2.5582v-41.49c0-1.4322 1.126-2.5582 2.5582-2.5582z" fill="url(#j)" stroke-width=".125"/>
  <path d="m17.817-94.236v50.222c0 1.4322 1.0106 2.6929 2.296 2.6929h79.635c1.2854 0 2.296-1.2607 2.296-2.6929v-50.222h-1.3293v48.875c4e-5 1.4322-1.0106 2.5582-2.296 2.5582h-76.614c-1.2854 0-2.4168-1.126-2.4168-2.5582v-48.875h-1.5709z" fill="url(#i)" opacity=".486" stroke-width="1.75"/>
  <path d="m26.569-25.937c-2.387 0-4.3086 1.9216-4.3086 4.3086v49.28h86.172v-49.28c0-2.387-1.9216-4.3086-4.3086-4.3086h-77.554z" fill="url(#h)" stroke-width="1.75"/>
  <rect x="30.685" y="-16.663" width="69.24" height=".899" fill="#555" stroke-width="1.75"/>
  <rect x="30.685" y="-8.05" width="69.24" height=".899" fill="#555" stroke-width="1.75"/>
  <rect x="30.685" y=".571" width="69.24" height=".899" fill="#555" stroke-width="1.75"/>
  <rect x="30.685" y="9.188" width="69.24" height=".899" fill="#555" stroke-width="1.75"/>
  <rect x="30.685" y="17.805" width="69.24" height=".899" fill="#555" stroke-width="1.75"/>
  <rect x="30.685" y="17.805" width="69.24" height=".899" fill="#555" stroke-width="1.75"/>
  <path d="m6.9113-94.201c-2.387 0-4.3086 1.9216-4.3086 4.3086v113.23c0 2.387 1.9216 4.3086 4.3086 4.3086h114.18c2.387 0 4.3086-1.9216 4.3086-4.3086v-110.81l-6.7322-6.7322h-111.75zm0.40393 110.95h5.5204c0.2387 0 0.53857 0.16523 0.53857 0.40393v5.2511c-4.3e-5 0.23874-0.29988 0.40393-0.53857 0.40393h-5.5204c-0.23874 4.3e-5 -0.53857-0.16523-0.53857-0.40393v-5.2511c0-0.23874 0.29988-0.40393 0.53857-0.40393zm107.71 0.67322h5.655c0.23869 0 0.40393 0.16523 0.40393 0.40393v5.3857c-4e-5 0.23874-0.16524 0.40393-0.40393 0.40393h-5.655c-0.23874 4.3e-5 -0.40393-0.16523-0.40393-0.40393v-5.3857c0-0.23874 0.16523-0.40393 0.40393-0.40393z" fill="none" stroke="url(#l)" stroke-width="1.75"/>
 </g>
</svg>
