<?xml version='1.0' encoding='utf-8'?>
<svg xmlns="http://www.w3.org/2000/svg" width="2100" height="3e3" version="1.1" viewBox="0 0 555.62 793.75"> <path d="m222.58 720.94h110.47v32.384a28.077 28.352 0 0 1-28.077 28.352h-54.317a28.077 28.352 0 0 1-28.077-28.352z" fill="#888" stroke-linecap="round" stroke-linejoin="round" stroke-opacity=".7406" stroke-width="3.4388" style="paint-order:markers stroke fill"/> <path d="m277.81 12.073c-146.11 0.001082-264.55 118.44-264.55 264.55 0.4951 159.31 120.2 202.01 120.2 317.32h288.7c0-125.36 120.2-163.92 120.2-317.32 2.4e-4 -146.11-118.44-264.55-264.55-264.55z" fill="#ffde05" stroke-linecap="round" stroke-linejoin="round" stroke-opacity=".7406" stroke-width="10.122" style="paint-order:markers stroke fill"/> <path d="m314.27 720.94v32.4a28.077 28.595 0 0 1-25.156 28.335h15.86a28.077 28.352 0 0 0 28.077-28.352v-32.383z" fill="#787878" stroke-linecap="round" stroke-linejoin="round" stroke-opacity=".7406" stroke-width="3.4388" style="paint-order:markers stroke fill"/> <path d="m323.29 624.46v-306.38c0-43.221 61.128-42.761 61.128-2.4405 0 40.32-31.669 39.502-68.493 39.502h-76.23c-36.824 0-68.493 0.8182-68.493-39.502 0-40.32 61.128-40.781 61.128 2.4405v306.38" fill="none" stroke="#de9b00" stroke-linecap="round" stroke-linejoin="round" stroke-width="15.669" style="paint-order:markers stroke fill"/> <path d="m432.54 62.101c130.81 133.51-44.484 496.11-300.12 514.16 0.63522 5.7244 1.0366 11.586 1.0366 17.689h288.7c0-125.36 120.2-163.92 120.2-317.32 1.4e-4 -88.317-43.317-166.47-109.82-214.52z" fill="#fac800" stroke-linecap="round" stroke-linejoin="round" stroke-opacity=".7406" stroke-width="10.122" style="paint-order:markers stroke fill"/> <path d="m331.13 485.53c-5.149 4.6606-10.309 9.3058-15.671 13.693v94.721h15.671zm-90.959 61.753c-5.1711 2.455-10.384 4.8151-15.671 6.9936v39.668h15.671z" color="#000000" fill="#d68400" style="-inkscape-stroke:none;paint-order:markers stroke fill"/> <path d="m133.46 592.41h288.7v84.63a73.375 74.094 0 0 1-73.375 74.094h-141.95a73.375 74.094 0 0 1-73.375-74.094z" fill="#a3a3a3" stroke-linecap="round" stroke-linejoin="round" stroke-opacity=".7406" stroke-width="8.9867" style="paint-order:markers stroke fill"/> <path d="m422.16 593.95-288.7-8.8e-4 -1e-5 39.925z" fill="#8c8c8c" style="paint-order:markers stroke fill"/> <path d="m422.16 633.87-288.7-8.8e-4 -1e-5 39.925z" fill="#8c8c8c" style="paint-order:markers stroke fill"/> <path d="m133.46 673.8v3.2388a73.375 74.094 0 0 0 9.0835 35.429l279.62-38.668z" fill="#8c8c8c" style="paint-order:markers stroke fill"/> <path d="m386.81 592.41v84.826a73.375 76.845 0 0 1-54.298 73.901h16.275a73.375 74.094 0 0 0 73.375-74.096v-84.63z" fill-opacity=".2232" stroke-linecap="round" stroke-linejoin="round" stroke-opacity=".7406" stroke-width="8.9867" style="paint-order:markers stroke fill"/> <path d="m192.01 86.793c-15.112 3.9087-27.315 14.347-39.397 23.701-38.439 32.025-67.786 75.814-79.809 124.6-1.688 6.0932-2.1706 18.948 7.3995 17.09 7.976-3.4414 10.849-13.254 16.075-19.716 20.903-35.564 44.587-69.599 72.36-100.17 10.279-11.838 21.925-22.618 30.651-35.716 2.3257-4.9452-1.5359-11.106-7.2797-9.7867z" fill="#fff" fill-opacity=".46827" stroke-linecap="round" stroke-linejoin="round" stroke-width="16.229" style="paint-order:markers stroke fill"/> </svg>